# 3ds Max Wavefront OBJ Exporter v0.97b - (c)2007 guruware
# File Created: 01.04.2016 19:55:46

#
# object Base_HumanPelvis
#

v  -11.2463 87.3381 2.1295
v  -11.2463 87.2872 -10.7170
v  11.2463 87.2872 -10.7170
v  11.2463 87.3381 2.1294
v  -11.2463 100.7876 2.0825
v  11.2463 100.7875 2.0825
v  11.2463 100.7367 -10.7639
v  -11.2463 100.7367 -10.7639
# 8 vertices

vn -0.0000 -1.0000 0.0040
vn 0.0000 1.0000 -0.0040
vn -0.0000 -0.0035 -1.0000
vn -1.0000 0.0000 0.0000
vn 0.0000 0.0035 1.0000
vn 1.0000 -0.0000 -0.0000
# 6 vertex normals

g Base_HumanPelvis
s 2
f 1//1 2//1 3//1 4//1 
s 4
f 5//2 6//2 7//2 8//2 
s 8
f 8//3 7//3 3//3 2//3 
s 16
f 5//4 8//4 2//4 1//4 
s 32
f 6//5 5//5 1//5 4//5 
s 64
f 7//6 6//6 4//6 3//6 
# 6 polygons

#
# object Base_HumanRThigh
#

v  -4.9208 96.2549 2.1777
v  -5.0910 94.4751 -9.2906
v  -13.0165 94.8476 -9.1985
v  -12.8463 96.6274 2.2699
v  -7.0043 50.4026 8.3360
v  -14.9298 50.7751 8.4282
v  -15.1012 49.4970 -1.1464
v  -7.1757 49.1245 -1.2386
# 8 vertices

vn 0.0446 0.9871 -0.1539
vn -0.0450 -0.9901 0.1330
vn -0.0196 -0.1739 -0.9846
vn 0.9988 -0.0477 -0.0109
vn 0.9988 -0.0480 -0.0115
vn 0.9989 -0.0466 -0.0081
vn 0.9989 -0.0464 -0.0076
vn 0.0177 0.1323 0.9911
vn -0.9988 0.0470 0.0110
vn -0.9988 0.0469 0.0116
vn -0.9989 0.0472 0.0080
vn -0.9989 0.0472 0.0075
# 12 vertex normals

g Base_HumanRThigh
s 2
f 9//7 10//7 11//7 12//7 
s 4
f 13//8 14//8 15//8 16//8 
s 8
f 16//9 15//9 11//9 10//9 
s 16
f 13//10 16//11 10//12 9//13 
s 32
f 14//14 13//14 9//14 12//14 
s 64
f 15//15 14//16 12//17 11//18 
# 6 polygons

#
# object Base_HumanRCalf
#

v  -14.8748 51.0767 -0.8362
v  -14.8532 49.1494 8.1146
v  -7.2307 48.8229 8.0259
v  -7.2523 50.7502 -0.9249
v  -16.9854 4.5178 -10.8562
v  -9.3630 4.1913 -10.9449
v  -9.3413 2.2640 -1.9941
v  -16.9638 2.5905 -1.9054
# 8 vertices

vn 0.0443 0.9767 0.2102
vn -0.0443 -0.9767 -0.2102
vn -0.0024 0.2105 -0.9776
vn 0.9990 -0.0428 -0.0116
vn 0.0024 -0.2105 0.9776
vn -0.9990 0.0428 0.0116
# 6 vertex normals

g Base_HumanRCalf
s 2
f 17//19 18//19 19//19 20//19 
s 4
f 21//20 22//20 23//20 24//20 
s 8
f 17//21 20//21 22//21 21//21 
s 16
f 20//22 19//22 23//22 22//22 
s 32
f 19//23 18//23 24//23 23//23 
s 64
f 18//24 17//24 21//24 24//24 
# 6 polygons

#
# object Base_HumanRFoot
#

v  -9.1628 6.0465 -10.5695
v  -8.8495 0.0583 -10.6061
v  -17.4726 0.0597 -10.6119
v  -17.0308 6.0477 -10.5748
v  -9.1767 3.4433 9.4945
v  -17.0447 3.4445 9.4892
v  -17.4873 -0.0089 11.1161
v  -8.8642 -0.0103 11.1219
v  -17.4784 0.0073 -2.1095
v  -8.8553 0.0060 -2.1037
v  -9.1685 5.9941 -2.0670
v  -17.0365 5.9953 -2.0723
# 12 vertices

vn 0.0007 0.0062 -1.0000
vn -0.0005 0.4262 0.9046
vn -0.0002 -1.0000 -0.0012
vn 0.9966 0.0818 0.0034
vn 0.9959 0.0905 0.0008
vn 0.9982 0.0593 0.0101
vn 0.9986 0.0522 0.0122
vn 0.0000 0.9765 0.2154
vn -0.9931 0.1158 0.0188
vn -0.9895 0.1412 0.0304
vn -0.9964 0.0842 0.0043
vn -0.9973 0.0736 -0.0006
vn -0.9973 0.0736 -0.0002
vn 0.0001 1.0000 0.0062
vn 0.9986 0.0522 0.0010
vn -0.0001 -1.0000 -0.0062
# 16 vertex normals

g Base_HumanRFoot
s 2
f 25//25 26//25 27//25 28//25 
s 4
f 29//26 30//26 31//26 32//26 
s 8
f 32//27 31//27 33//27 34//27 
s 16
f 29//28 32//29 34//30 35//31 
s 32
f 30//32 29//32 35//32 36//32 
s 64
f 31//33 30//34 36//35 33//36 
s off
f 33//37 36//37 28//37 27//37 
f 36//38 35//38 25//38 28//38 
f 35//39 34//39 26//39 25//39 
f 34//40 33//40 27//40 26//40 
# 10 polygons

#
# object Base_HumanSpine1
#

v  -10.4448 100.5156 2.2495
v  -10.4448 100.9966 -10.7594
v  10.4448 100.9966 -10.7594
v  10.4448 100.5156 2.2495
v  -10.5880 115.3906 3.5888
v  10.5880 115.3906 3.5888
v  10.5880 115.8717 -9.4201
v  -10.5880 115.8717 -9.4201
# 8 vertices

vn -0.0000 -0.9993 -0.0370
vn -0.0000 0.9993 0.0370
vn -0.0000 0.0897 -0.9960
vn 0.0000 0.0897 -0.9960
vn -1.0000 -0.0096 -0.0004
vn 0.0000 -0.0897 0.9960
vn 1.0000 -0.0096 -0.0004
# 7 vertex normals

g Base_HumanSpine1
s 2
f 37//41 38//41 39//41 40//41 
s 4
f 41//42 42//42 43//42 44//42 
s 8
f 44//43 43//44 39//43 38//43 
s 16
f 41//45 44//45 38//45 37//45 
s 32
f 42//46 41//46 37//46 40//46 
s 64
f 43//47 42//47 40//47 39//47 
# 6 polygons

#
# object Base_HumanSpine2
#

v  -10.7652 115.5923 3.9228
v  -10.7652 115.6700 -9.4294
v  10.7652 115.6700 -9.4294
v  10.7652 115.5923 3.9228
v  -11.9524 132.1629 4.6712
v  11.9524 132.1629 4.6712
v  11.9524 132.2406 -8.6809
v  -11.9524 132.2406 -8.6809
# 8 vertices

vn -0.0000 -1.0000 -0.0058
vn 0.0000 1.0000 0.0058
vn -0.0000 1.0000 0.0058
vn -0.0000 0.0451 -0.9990
vn -0.9974 -0.0714 -0.0004
vn 0.0000 -0.0451 0.9990
vn 0.9974 -0.0714 -0.0004
# 7 vertex normals

g Base_HumanSpine2
s 2
f 45//48 46//48 47//48 48//48 
s 4
f 49//49 50//50 51//49 52//49 
s 8
f 52//51 51//51 47//51 46//51 
s 16
f 49//52 52//52 46//52 45//52 
s 32
f 50//53 49//53 45//53 48//53 
s 64
f 51//54 50//54 48//54 47//54 
# 6 polygons

#
# object Base_HumanRibcage
#

v  -12.2360 131.9015 4.4552
v  -12.2360 131.9015 -8.5342
v  12.2360 131.9015 -8.5342
v  12.2360 131.9015 4.4552
v  -12.0988 150.6194 2.5554
v  12.0987 150.6194 2.5554
v  12.0987 150.6194 -8.7614
v  -12.0988 150.6194 -8.7614
# 8 vertices

vn 0.0000 -1.0000 0.0000
vn 0.0000 1.0000 -0.0000
vn -0.0000 -0.0121 -0.9999
vn -1.0000 0.0073 0.0000
vn 0.0000 0.1010 0.9949
vn 1.0000 0.0073 -0.0000
# 6 vertex normals

g Base_HumanRibcage
s 2
f 53//55 54//55 55//55 56//55 
s 4
f 57//56 58//56 59//56 60//56 
s 8
f 60//57 59//57 55//57 54//57 
s 16
f 57//58 60//58 54//58 53//58 
s 32
f 58//59 57//59 53//59 56//59 
s 64
f 59//60 58//60 56//60 55//60 
# 6 polygons

#
# object Base_HumanRCollarbone
#

v  -2.1352 150.4521 2.4597
v  -3.7273 151.0191 5.8800
v  -4.0059 147.2467 6.3756
v  -2.4139 146.6797 2.9553
v  -14.3162 150.6036 -3.2353
v  -14.5948 146.8312 -2.7396
v  -16.1869 147.3982 0.6806
v  -15.9082 151.1706 0.1850
# 8 vertices

vn 0.9058 -0.0113 0.4235
vn -0.9058 0.0113 -0.4235
vn 0.4173 -0.1486 -0.8965
vn -0.0730 -0.9888 0.1299
vn -0.4173 0.1486 0.8965
vn 0.0730 0.9888 -0.1299
# 6 vertex normals

g Base_HumanRCollarbone
s 2
f 61//61 62//61 63//61 64//61 
s 4
f 65//62 66//62 67//62 68//62 
s 8
f 61//63 64//63 66//63 65//63 
s 16
f 64//64 63//64 67//64 66//64 
s 32
f 63//65 62//65 68//65 67//65 
s 64
f 62//66 61//66 65//66 68//66 
# 6 polygons

#
# object Base_HumanRUpperarm
#

v  -12.4325 147.2017 2.5027
v  -11.6144 149.4232 -4.7507
v  -17.6910 150.7191 -5.0393
v  -18.5092 148.4976 2.2141
v  -18.5268 116.3690 -7.6280
v  -24.6034 117.6648 -7.9165
v  -23.7853 119.8864 -15.1699
v  -17.7087 118.5905 -14.8814
# 8 vertices

vn 0.1846 0.9337 0.3068
vn -0.1846 -0.9337 -0.3068
vn 0.1072 0.2912 -0.9506
vn 0.9770 -0.2083 0.0464
vn -0.1072 -0.2912 0.9506
vn -0.9770 0.2083 -0.0464
# 6 vertex normals

g Base_HumanRUpperarm
s 2
f 69//67 70//67 71//67 72//67 
s 4
f 73//68 74//68 75//68 76//68 
s 8
f 76//69 75//69 71//69 70//69 
s 16
f 73//70 76//70 70//70 69//70 
s 32
f 74//71 73//71 69//71 72//71 
s 64
f 75//72 74//72 72//72 71//72 
# 6 polygons

#
# object Base_HumanRForearm
#

v  -24.9361 117.3690 -14.9249
v  -23.7382 120.0374 -7.3238
v  -17.7555 118.9672 -7.8909
v  -18.9534 116.2988 -15.4920
v  -28.6847 91.2396 -5.1615
v  -22.7021 90.1694 -5.7286
v  -21.5042 92.8377 1.8725
v  -27.4868 93.9079 2.4396
# 8 vertices

vn 0.1332 0.9284 -0.3469
vn -0.1332 -0.9284 0.3469
vn -0.1471 -0.3276 -0.9333
vn 0.9801 -0.1753 -0.0929
vn 0.1471 0.3276 0.9333
vn -0.9801 0.1753 0.0929
# 6 vertex normals

g Base_HumanRForearm
s 2
f 77//73 78//73 79//73 80//73 
s 4
f 81//74 82//74 83//74 84//74 
s 8
f 77//75 80//75 82//75 81//75 
s 16
f 80//76 79//76 83//76 82//76 
s 32
f 79//77 78//77 84//77 83//77 
s 64
f 78//78 77//78 81//78 84//78 
# 6 polygons

#
# object Base_HumanRPalm
#

v  -27.4550 93.0196 1.9874
v  -22.2953 92.7504 1.7295
v  -22.7339 91.0576 -5.2765
v  -27.8935 91.3268 -5.0185
v  -28.2435 82.0528 5.2299
v  -28.7461 80.1129 -2.7989
v  -21.6463 79.7425 -3.1538
v  -21.1437 81.6824 4.8751
v  -20.5144 86.7057 4.0757
v  -21.0705 84.5594 -4.8075
v  -28.3340 87.1137 4.4666
v  -28.8901 84.9673 -4.4167
# 12 vertices

vn 0.0388 0.9707 -0.2370
vn -0.0388 -0.9707 0.2370
vn 0.9640 0.2383 -0.1179
vn 0.9958 0.0518 -0.0749
vn 0.0659 0.3779 0.9235
vn 0.0619 0.2640 0.9625
vn 0.0616 0.2567 0.9645
vn -0.9873 0.1570 0.0239
vn -0.9963 0.0729 0.0448
vn -0.0542 -0.0857 -0.9948
vn -0.0598 -0.2121 -0.9754
vn -0.0595 -0.2047 -0.9770
vn 0.9912 -0.1291 -0.0309
vn 0.0572 0.1499 0.9870
vn -0.9979 -0.0081 0.0644
vn -0.0639 -0.3172 -0.9462
# 16 vertex normals

g Base_HumanRPalm
s 2
f 85//79 86//79 87//79 88//79 
s 4
f 89//80 90//80 91//80 92//80 
s 8
f 86//81 93//82 94//82 87//81 
s 16
f 85//83 95//84 93//85 86//83 
s 32
f 88//86 96//87 95//87 85//86 
s 64
f 87//88 94//89 96//90 88//88 
s 8
f 92//91 91//91 94//82 93//82 
s 16
f 89//92 92//92 93//85 95//84 
s 32
f 90//93 89//93 95//87 96//87 
s 64
f 91//94 90//94 96//90 94//89 
# 10 polygons

#
# object Base_HumanNeck1
#

v  1.9075 150.7419 -8.1958
v  1.9075 150.6588 -4.3817
v  -1.9075 150.6588 -4.3817
v  -1.9075 150.7419 -8.1958
v  1.9075 155.6136 -8.0896
v  -1.9075 155.6136 -8.0896
v  -1.9075 155.5305 -4.2755
v  1.9075 155.5305 -4.2755
# 8 vertices

vn 0.0000 -0.9998 -0.0218
vn -0.0000 0.9998 0.0218
vn -0.0000 0.0218 -0.9998
vn -1.0000 -0.0000 0.0000
vn 0.0000 -0.0218 0.9998
vn 1.0000 0.0000 -0.0000
# 6 vertex normals

g Base_HumanNeck1
s 2
f 97//95 98//95 99//95 100//95 
s 4
f 101//96 102//96 103//96 104//96 
s 8
f 97//97 100//97 102//97 101//97 
s 16
f 100//98 99//98 103//98 102//98 
s 32
f 99//99 98//99 104//99 103//99 
s 64
f 98//100 97//100 101//100 104//100 
# 6 polygons

#
# object Base_HumanNeck2
#

v  1.9075 155.6136 -8.0896
v  1.9075 155.5305 -4.2755
v  -1.9075 155.5305 -4.2755
v  -1.9075 155.6136 -8.0896
v  1.9075 160.4853 -7.9834
v  -1.9075 160.4853 -7.9834
v  -1.9075 160.4022 -4.1693
v  1.9075 160.4022 -4.1693
# 8 vertices

vn 0.0000 -0.9998 -0.0218
vn -0.0000 0.9998 0.0218
vn -0.0000 0.0218 -0.9998
vn -1.0000 -0.0000 0.0000
vn 0.0000 -0.0218 0.9998
vn 1.0000 0.0000 -0.0000
# 6 vertex normals

g Base_HumanNeck2
s 2
f 105//101 106//101 107//101 108//101 
s 4
f 109//102 110//102 111//102 112//102 
s 8
f 105//103 108//103 110//103 109//103 
s 16
f 108//104 107//104 111//104 110//104 
s 32
f 107//105 106//105 112//105 111//105 
s 64
f 106//106 105//106 109//106 112//106 
# 6 polygons

#
# object Base_HumanHead
#

v  5.6104 155.9100 -8.3733
v  5.6104 155.9100 6.0646
v  -5.6104 155.9100 6.0646
v  -5.6104 155.9100 -8.3733
v  5.6104 175.8585 -8.3733
v  -5.6104 175.8585 -8.3733
v  -5.6104 175.8585 6.0646
v  5.6104 175.8585 6.0646
# 8 vertices

vn 0.0000 -1.0000 0.0000
vn -0.0000 1.0000 -0.0000
vn -0.0000 -0.0000 -1.0000
vn -1.0000 -0.0000 0.0000
vn 0.0000 0.0000 1.0000
vn 1.0000 0.0000 -0.0000
# 6 vertex normals

g Base_HumanHead
s 2
f 113//107 114//107 115//107 116//107 
s 4
f 117//108 118//108 119//108 120//108 
s 8
f 113//109 116//109 118//109 117//109 
s 16
f 116//110 115//110 119//110 118//110 
s 32
f 115//111 114//111 120//111 119//111 
s 64
f 114//112 113//112 117//112 120//112 
# 6 polygons

#
# object Base_HumanLArmCollarbone
#

v  2.4139 146.6797 2.9553
v  4.0059 147.2467 6.3756
v  3.7273 151.0191 5.8800
v  2.1352 150.4521 2.4597
v  14.5948 146.8312 -2.7396
v  14.3162 150.6036 -3.2353
v  15.9082 151.1706 0.1850
v  16.1868 147.3982 0.6806
# 8 vertices

vn -0.9058 -0.0113 0.4235
vn 0.9058 0.0113 -0.4235
vn -0.4173 -0.1486 -0.8965
vn -0.0730 0.9888 -0.1299
vn 0.4173 0.1486 0.8965
vn 0.0730 -0.9888 0.1299
# 6 vertex normals

g Base_HumanLArmCollarbone
s 2
f 121//113 122//113 123//113 124//113 
s 4
f 125//114 126//114 127//114 128//114 
s 8
f 121//115 124//115 126//115 125//115 
s 16
f 124//116 123//116 127//116 126//116 
s 32
f 123//117 122//117 128//117 127//117 
s 64
f 122//118 121//118 125//118 128//118 
# 6 polygons

#
# object Base_HumanLArmUpperarm
#

v  11.6143 149.4232 -4.7507
v  12.4325 147.2017 2.5027
v  18.5091 148.4976 2.2141
v  17.6910 150.7191 -5.0393
v  24.6034 117.6649 -7.9165
v  18.5268 116.3690 -7.6280
v  17.7086 118.5905 -14.8814
v  23.7853 119.8864 -15.1699
# 8 vertices

vn -0.1846 0.9337 0.3068
vn 0.1846 -0.9337 -0.3068
vn -0.1072 0.2912 -0.9506
vn -0.9770 -0.2083 0.0464
vn 0.1072 -0.2912 0.9506
vn 0.9770 0.2083 -0.0464
# 6 vertex normals

g Base_HumanLArmUpperarm
s 2
f 129//119 130//119 131//119 132//119 
s 4
f 133//120 134//120 135//120 136//120 
s 8
f 136//121 135//121 129//121 132//121 
s 16
f 135//122 134//122 130//122 129//122 
s 32
f 134//123 133//123 131//123 130//123 
s 64
f 133//124 136//124 132//124 131//124 
# 6 polygons

#
# object Base_HumanLArmForearm
#

v  18.9534 116.2989 -15.4920
v  17.7555 118.9672 -7.8909
v  23.7382 120.0374 -7.3238
v  24.9360 117.3691 -14.9249
v  22.7020 90.1693 -5.7286
v  28.6847 91.2396 -5.1614
v  27.4868 93.9079 2.4396
v  21.5042 92.8377 1.8725
# 8 vertices

vn -0.1332 0.9284 -0.3469
vn 0.1332 -0.9284 0.3469
vn 0.1471 -0.3276 -0.9333
vn 0.9801 0.1753 0.0929
vn -0.1471 0.3276 0.9333
vn -0.9801 -0.1753 -0.0929
# 6 vertex normals

g Base_HumanLArmForearm
s 2
f 137//125 138//125 139//125 140//125 
s 4
f 141//126 142//126 143//126 144//126 
s 8
f 137//127 140//127 142//127 141//127 
s 16
f 140//128 139//128 143//128 142//128 
s 32
f 139//129 138//129 144//129 143//129 
s 64
f 138//130 137//130 141//130 144//130 
# 6 polygons

#
# object Base_HumanLArmPalm
#

v  22.2953 92.7504 1.7295
v  27.4550 93.0196 1.9875
v  27.8935 91.3268 -5.0185
v  22.7339 91.0576 -5.2764
v  28.7461 80.1128 -2.7988
v  28.2435 82.0528 5.2300
v  21.1437 81.6824 4.8751
v  21.6463 79.7425 -3.1537
v  20.5144 86.7057 4.0758
v  21.0705 84.5593 -4.8075
v  28.3340 87.1136 4.4666
v  28.8901 84.9673 -4.4166
# 12 vertices

vn -0.0388 0.9707 -0.2370
vn 0.0388 -0.9707 0.2370
vn -0.9958 0.0518 -0.0749
vn -0.9640 0.2383 -0.1179
vn -0.0619 0.2640 0.9625
vn -0.0659 0.3779 0.9235
vn -0.0616 0.2567 0.9645
vn 0.9963 0.0729 0.0448
vn 0.9873 0.1570 0.0239
vn 0.0598 -0.2121 -0.9754
vn 0.0542 -0.0857 -0.9948
vn 0.0595 -0.2047 -0.9770
vn -0.9912 -0.1291 -0.0309
vn -0.0572 0.1499 0.9870
vn 0.9979 -0.0081 0.0644
vn 0.0638 -0.3172 -0.9462
# 16 vertex normals

g Base_HumanLArmPalm
s 2
f 145//131 146//131 147//131 148//131 
s 4
f 149//132 150//132 151//132 152//132 
s 8
f 153//133 145//134 148//134 154//133 
s 16
f 155//135 146//136 145//136 153//137 
s 32
f 156//138 147//139 146//139 155//138 
s 64
f 154//140 148//141 147//141 156//142 
s 8
f 152//143 151//143 153//133 154//133 
s 16
f 151//144 150//144 155//135 153//137 
s 32
f 150//145 149//145 156//138 155//138 
s 64
f 149//146 152//146 154//140 156//142 
# 10 polygons

#
# object Base_HumanLLegThigh
#

v  5.0910 94.4751 -9.2906
v  4.9208 96.2549 2.1777
v  12.8463 96.6274 2.2699
v  13.0165 94.8476 -9.1985
v  14.9298 50.7752 8.4283
v  7.0043 50.4027 8.3361
v  7.1757 49.1245 -1.2385
v  15.1012 49.4970 -1.1463
# 8 vertices

vn -0.0446 0.9871 -0.1539
vn 0.0450 -0.9901 0.1330
vn 0.0196 -0.1739 -0.9846
vn -0.9988 -0.0480 -0.0115
vn -0.9988 -0.0477 -0.0109
vn -0.9989 -0.0464 -0.0076
vn -0.9989 -0.0466 -0.0081
vn -0.0177 0.1323 0.9911
vn 0.9988 0.0469 0.0116
vn 0.9988 0.0470 0.0110
vn 0.9989 0.0472 0.0075
vn 0.9989 0.0472 0.0080
# 12 vertex normals

g Base_HumanLLegThigh
s 2
f 157//147 158//147 159//147 160//147 
s 4
f 161//148 162//148 163//148 164//148 
s 8
f 164//149 163//149 157//149 160//149 
s 16
f 163//150 162//151 158//152 157//153 
s 32
f 162//154 161//154 159//154 158//154 
s 64
f 161//155 164//156 160//157 159//158 
# 6 polygons

#
# object Base_HumanLLegCalf
#

v  7.2523 50.7503 -0.9248
v  7.2308 48.8214 8.0257
v  14.8532 49.1493 8.1146
v  14.8747 51.0782 -0.8358
v  9.3721 4.1936 -10.9529
v  16.9945 4.5215 -10.8640
v  16.9730 2.5926 -1.9135
v  9.3505 2.2647 -2.0024
# 8 vertices

vn -0.0445 0.9766 0.2104
vn 0.0445 -0.9766 -0.2104
vn 0.0024 0.2107 -0.9776
vn 0.9990 0.0430 0.0117
vn -0.0024 -0.2107 0.9776
vn -0.9990 -0.0430 -0.0117
# 6 vertex normals

g Base_HumanLLegCalf
s 2
f 165//159 166//159 167//159 168//159 
s 4
f 169//160 170//160 171//160 172//160 
s 8
f 165//161 168//161 170//161 169//161 
s 16
f 168//162 167//162 171//162 170//162 
s 32
f 167//163 166//163 172//163 171//163 
s 64
f 166//164 165//164 169//164 172//164 
# 6 polygons

#
# object Base_HumanLLegFoot
#

v  8.8610 0.0613 -10.6172
v  9.1751 6.0493 -10.5801
v  17.0431 6.0493 -10.5801
v  17.4841 0.0613 -10.6172
v  17.0431 3.4456 9.4838
v  9.1751 3.4456 9.4838
v  8.8610 -0.0079 11.1109
v  17.4841 -0.0079 11.1109
v  8.8610 0.0087 -2.1147
v  17.4841 0.0087 -2.1147
v  9.1751 5.9967 -2.0777
v  17.0431 5.9967 -2.0777
# 12 vertices

vn -0.0000 0.0062 -1.0000
vn 0.0000 0.4262 0.9046
vn 0.0000 -1.0000 -0.0013
vn -0.9959 0.0906 0.0001
vn -0.9966 0.0819 0.0027
vn -0.9986 0.0523 0.0115
vn -0.9982 0.0594 0.0094
vn 0.0000 0.9765 0.2155
vn -0.0000 0.9765 0.2155
vn 0.9895 0.1410 0.0311
vn 0.9931 0.1156 0.0194
vn 0.9973 0.0734 0.0001
vn 0.9965 0.0840 0.0049
vn 0.9973 0.0734 0.0005
vn -0.0000 1.0000 0.0062
vn -0.9986 0.0524 0.0003
vn 0.0000 -1.0000 -0.0062
# 17 vertex normals

g Base_HumanLLegFoot
s 2
f 173//165 174//165 175//165 176//165 
s 4
f 177//166 178//166 179//166 180//166 
s 8
f 180//167 179//167 181//167 182//167 
s 16
f 179//168 178//169 183//170 181//171 
s 32
f 178//172 177//172 184//173 183//172 
s 64
f 177//174 180//175 182//176 184//177 
s off
f 184//178 182//178 176//178 175//178 
f 183//179 184//179 175//179 174//179 
f 181//180 183//180 174//180 173//180 
f 182//181 181//181 173//181 176//181 
# 10 polygons

